<svg xmlns="http://www.w3.org/2000/svg" viewBox="0 0 64 64" fill="none">
  <defs>
    <linearGradient id="wood" x1="6" y1="6" x2="58" y2="58" gradientUnits="userSpaceOnUse">
      <stop stop-color="#7A4E2F"/>
      <stop offset="1" stop-color="#A56A3E"/>
    </linearGradient>
  </defs>

  <rect x="4" y="4" width="56" height="56" rx="14" fill="url(#wood)"/>

  <path d="M11 23c7-5 16-7 25-7 7 0 13 2 18 6" stroke="#D9AE87" stroke-opacity=".28" stroke-width="2"/>
  <path d="M10 31c8-4 17-6 26-5 7 0 13 2 18 5" stroke="#D9AE87" stroke-opacity=".28" stroke-width="2"/>
  <path d="M10 39c8-3 17-4 26-3 7 0 13 2 18 4" stroke="#D9AE87" stroke-opacity=".28" stroke-width="2"/>

  <path d="M16 46V18H28C33.4 18 37 21.2 37 26C37 30.8 33.4 34 28 34H22V46H16ZM22 29H27.4C29.8 29 31 27.8 31 26C31 24.2 29.8 23 27.4 23H22V29Z" fill="#F7E7D4"/>
  <path d="M39 46V18H45L50 27L55 18H61V46H55V28.2L50 37.5L45 28.2V46H39Z" fill="#F7E7D4"/>
</svg>
